<svg xmlns="http://www.w3.org/2000/svg" width="27" height="23" viewBox="0 0 27 23">
  <g id="checkbox-on" opacity="0.397">
    <g id="checkbox-on-2" data-name="checkbox-on">
      <path id="Shape" d="M2.829,6.149,0,8.978l7.783,7.783L21.715,2.829,18.887,0,7.783,11.1Z" transform="translate(4.456 1.337)" fill="#4d4d4d"/>
      <path id="Shape-2" data-name="Shape" d="M21,20a1.013,1.013,0,0,1-1,1H3a1.013,1.013,0,0,1-1-1V3A1.013,1.013,0,0,1,3,2H19.908L21.493.415A2.96,2.96,0,0,0,20,0H3A3.009,3.009,0,0,0,0,3V20a3.009,3.009,0,0,0,3,3H20a3.009,3.009,0,0,0,3-3V10.171l-2,2Z" fill="#4d4d4d"/>
    </g>
  </g>
</svg>
