<svg width="24" height="24" viewBox="0 0 24 24" fill="none" xmlns="http://www.w3.org/2000/svg">
<g opacity="0.4">
<path fill-rule="evenodd" clip-rule="evenodd" d="M3.09033 0.71167H20.0903C21.7403 0.71167 23.0903 2.06167 23.0903 3.71167V20.7117C23.0903 22.3617 21.7403 23.7117 20.0903 23.7117H3.09033C1.44033 23.7117 0.090332 22.3617 0.090332 20.7117V3.71167C0.090332 2.06167 1.44033 0.71167 3.09033 0.71167ZM21.0903 3.71167C21.0903 3.16967 20.6323 2.71167 20.0903 2.71167H3.09033C2.54833 2.71167 2.09033 3.16967 2.09033 3.71167V20.7117C2.09033 21.2537 2.54833 21.7117 3.09033 21.7117H20.0903C20.6323 21.7117 21.0903 21.2537 21.0903 20.7117V3.71167Z" fill="#4D4D4D"/>
</g>
</svg>
