<svg width="28" height="24" viewBox="0 0 28 24" fill="none" xmlns="http://www.w3.org/2000/svg">
<g opacity="0.396875">
<path d="M7.37539 8.19771L4.54639 11.0267L12.3294 18.8097L26.2614 4.87771L23.4334 2.04871L12.3294 13.1507L7.37539 8.19771Z" fill="#4D4D4D"/>
<path d="M21.0903 20.7117C21.0903 21.2537 20.6323 21.7117 20.0903 21.7117H3.09033C2.54833 21.7117 2.09033 21.2537 2.09033 20.7117V3.71167C2.09033 3.16967 2.54833 2.71167 3.09033 2.71167H19.9983L21.5833 1.12667C21.1313 0.858212 20.616 0.71497 20.0903 0.71167H3.09033C1.44033 0.71167 0.090332 2.06167 0.090332 3.71167V20.7117C0.090332 22.3617 1.44033 23.7117 3.09033 23.7117H20.0903C21.7403 23.7117 23.0903 22.3617 23.0903 20.7117V10.8827L21.0903 12.8827V20.7117Z" fill="#4D4D4D"/>
</g>
</svg>
