<svg id="close-cross" xmlns="http://www.w3.org/2000/svg" width="21" height="21" viewBox="0 0 21 21">
  <g id="close-cross-2" data-name="close-cross">
    <path id="Shape" d="M13.319,10.492,20.69,3.121a1,1,0,0,0,0-1.414L19.276.292a1,1,0,0,0-1.414,0L10.491,7.664,3.12.293a1,1,0,0,0-1.414,0L.292,1.707a1,1,0,0,0,0,1.414l7.371,7.371L.292,17.863a1,1,0,0,0,0,1.414l1.415,1.414a1,1,0,0,0,1.414,0l7.371-7.371,7.371,7.371a1,1,0,0,0,1.414,0l1.414-1.414a1,1,0,0,0,0-1.414Z" transform="translate(0.009 0.008)" fill="#fb565a"/>
  </g>
</svg>
